<?xml version="1.0" standalone="no"?>
<!DOCTYPE svg PUBLIC "-//W3C//DTD SVG 20010904//EN"
 "http://www.w3.org/TR/2001/REC-SVG-20010904/DTD/svg10.dtd">
<svg version="1.0" xmlns="http://www.w3.org/2000/svg"
 width="1024.000000pt" height="1024.000000pt" viewBox="0 0 1024.000000 1024.000000"
 preserveAspectRatio="xMidYMid meet">

<g transform="translate(0.000000,1024.000000) scale(0.100000,-0.100000)"
fill="#000000" stroke="none">
<path d="M1481 9564 c-234 -42 -435 -160 -591 -346 -66 -78 -118 -169 -163
-287 -67 -170 -62 137 -62 -3821 l0 -3605 28 -90 c30 -101 86 -218 149 -315
50 -76 191 -218 265 -266 86 -56 225 -121 309 -146 l79 -23 3585 -3 c2618 -2
3605 0 3660 8 361 54 691 341 793 690 13 47 30 112 36 145 9 45 11 951 9 3650
l-3 3590 -23 85 c-37 134 -119 292 -199 382 -195 218 -317 291 -606 357 -34 8
-1059 11 -3620 10 -2948 -1 -3585 -4 -3646 -15z m3524 -1504 c3 -5 1 -10 -4
-10 -6 0 -11 5 -11 10 0 6 2 10 4 10 3 0 8 -4 11 -10z m15 -180 c0 -5 -2 -10
-4 -10 -3 0 -8 5 -11 10 -3 6 -1 10 4 10 6 0 11 -4 11 -10z m269 -31 c47 -10
182 -84 361 -199 227 -145 674 -420 683 -420 4 0 7 37 9 83 3 76 5 82 26 85
25 4 24 9 23 -116 l-1 -92 85 -55 c47 -30 87 -55 90 -55 3 0 5 22 5 49 0 40 4
50 19 54 25 6 36 -34 26 -93 -6 -37 -5 -40 37 -66 24 -15 62 -39 85 -55 l42
-28 3 42 c2 35 7 43 25 45 20 3 22 -1 25 -59 l3 -62 75 -48 c41 -26 80 -48 87
-48 7 -1 13 15 15 36 2 29 8 38 28 43 25 7 25 7 22 -55 -3 -53 0 -67 22 -99
13 -20 34 -66 46 -102 22 -65 22 -69 22 -968 0 -496 -4 -920 -8 -942 -10 -56
-46 -123 -91 -170 -40 -41 -68 -59 -513 -332 -455 -278 -424 -256 -430 -305
-4 -35 -8 -41 -25 -39 -11 2 -25 9 -31 17 -8 11 -28 3 -102 -42 l-92 -55 0
-104 0 -104 -25 0 c-25 0 -25 1 -25 86 0 100 8 99 -114 20 l-86 -56 0 -45 c0
-44 -1 -46 -27 -43 -16 2 -27 10 -29 21 -1 11 -4 20 -6 22 -2 2 -46 -23 -98
-56 -52 -33 -106 -62 -120 -65 -14 -2 -37 -9 -52 -13 -18 -6 -28 -6 -28 0 0 6
-5 7 -10 4 -6 -4 -8 -21 -4 -40 5 -28 3 -34 -16 -40 -28 -9 -38 1 -42 45 -3
32 -6 35 -40 37 -45 4 -115 33 -173 73 -24 16 -45 30 -47 30 -2 0 -4 -16 -5
-36 -1 -43 -5 -48 -32 -39 -18 5 -21 14 -21 60 l0 53 -70 41 c-38 23 -72 46
-75 51 -10 17 -25 11 -25 -10 0 -11 -7 -20 -15 -20 -16 0 -35 30 -35 57 0 14
-36 40 -122 92 -67 40 -165 101 -218 136 -89 58 -131 84 -337 210 -45 28 -110
68 -145 89 -34 22 -121 75 -193 119 -190 117 -234 148 -268 186 -38 45 -74
122 -87 192 -14 70 -14 1741 -1 1822 12 69 51 150 94 195 18 19 82 63 144 100
62 36 109 70 106 75 -3 6 -1 7 6 3 10 -7 190 100 561 334 178 112 203 128 270
166 36 21 112 68 170 105 440 283 474 301 597 308 12 0 44 -4 72 -10z m-1494
-29 c3 -5 1 -10 -4 -10 -6 0 -11 5 -11 10 0 6 2 10 4 10 3 0 8 -4 11 -10z
m875 -200 c0 -5 -5 -10 -11 -10 -5 0 -7 5 -4 10 3 6 8 10 11 10 2 0 4 -4 4
-10z m1718 -55 c4 -16 -12 -34 -29 -35 -14 0 -19 33 -8 47 15 17 33 12 37 -12z
m-1988 -125 c0 -5 -4 -10 -10 -10 -5 0 -10 5 -10 10 0 6 5 10 10 10 6 0 10 -4
10 -10z m2218 -118 c4 -26 -22 -40 -43 -22 -11 9 -12 17 -4 32 13 25 43 19 47
-10z m-295 -37 c-3 -9 -8 -14 -10 -11 -3 3 -2 9 2 15 9 16 15 13 8 -4z m512
-105 c0 -16 -6 -26 -18 -28 -19 -4 -32 20 -23 44 9 25 41 13 41 -16z m612 -76
c-3 -3 -12 -4 -19 -1 -8 3 -5 6 6 6 11 1 17 -2 13 -5z m-389 -67 c3 -22 -1
-27 -18 -27 -23 0 -35 22 -26 46 10 25 41 12 44 -19z m-4019 -701 c17 -20 3
-46 -24 -46 -29 0 -38 13 -30 40 7 23 37 26 54 6z m191 -16 c0 -29 -1 -30 -49
-30 -42 0 -49 3 -54 22 -9 32 -1 38 54 38 48 0 49 -1 49 -30z m4153 11 c8 -32
-13 -41 -100 -41 l-83 0 0 30 0 30 89 0 c79 0 89 -2 94 -19z m-78 -71 c-3 -5
-10 -10 -16 -10 -5 0 -9 5 -9 10 0 6 7 10 16 10 8 0 12 -4 9 -10z m-115 -130
c13 -8 13 -10 -2 -10 -9 0 -20 5 -23 10 -8 13 5 13 25 0z m220 -45 c16 -19 6
-45 -19 -45 -23 0 -35 28 -20 46 15 18 24 18 39 -1z m-4180 -20 l0 -25 -105 0
c-95 0 -105 2 -105 18 0 10 3 22 7 25 3 4 51 7 105 7 98 0 98 0 98 -25z m4065
0 c0 -17 -8 -20 -56 -23 -45 -2 -58 0 -63 13 -11 29 4 36 62 33 49 -3 57 -6
57 -23z m-4195 -86 c0 -5 -4 -9 -10 -9 -5 0 -10 7 -10 16 0 8 5 12 10 9 6 -3
10 -10 10 -16z m4235 -45 c0 -32 -21 -39 -38 -12 -8 12 -7 21 3 32 19 24 35
14 35 -20z m-4135 -68 c0 -11 -19 -15 -25 -6 -3 5 1 10 9 10 9 0 16 -2 16 -4z
m28 -39 c6 -7 9 -22 6 -33 -4 -16 -12 -19 -59 -16 -50 4 -55 6 -55 27 0 24 6
27 71 33 15 1 31 -4 37 -11z m4082 -33 c0 -26 -9 -31 -28 -12 -9 9 -12 9 -12
0 0 -13 -31 -15 -67 -6 -13 4 -23 14 -23 25 0 15 9 18 58 21 70 4 72 3 72 -28z
m-4270 -84 c0 -5 -2 -10 -4 -10 -3 0 -8 5 -11 10 -3 6 -1 10 4 10 6 0 11 -4
11 -10z m-22 -93 c3 -23 0 -27 -23 -27 -30 0 -43 24 -25 46 19 22 45 13 48
-19z m-68 -7 c0 -5 -4 -10 -10 -10 -5 0 -10 5 -10 10 0 6 5 10 10 10 6 0 10
-4 10 -10z m-102 -26 c4 -27 -26 -40 -46 -20 -21 20 -8 48 20 44 14 -2 24 -11
26 -24z m380 -36 c-3 -22 -8 -23 -90 -26 l-88 -3 0 26 c0 25 0 25 91 25 88 0
90 -1 87 -22z m4152 -3 c0 -25 0 -25 -94 -25 -96 0 -111 5 -100 34 5 13 23 16
100 16 94 0 94 0 94 -25z m-110 -65 c0 -5 -5 -10 -11 -10 -5 0 -7 5 -4 10 3 6
8 10 11 10 2 0 4 -4 4 -10z m165 -135 c0 -21 -31 -33 -46 -18 -5 5 -7 17 -3
27 9 24 49 17 49 -9z m-4215 -50 c0 -25 0 -25 -99 -25 -101 0 -116 5 -105 34
5 13 24 16 105 16 99 0 99 0 99 -25z m4080 0 c0 -24 -2 -25 -65 -25 -63 0 -65
1 -65 25 0 24 2 25 65 25 63 0 65 -1 65 -25z m-55 -205 c3 -5 1 -10 -4 -10 -6
0 -11 5 -11 10 0 6 2 10 4 10 3 0 8 -4 11 -10z m-4019 -52 l3 -28 -89 0 c-80
0 -89 2 -95 20 -11 35 3 41 92 38 85 -3 86 -3 89 -30z m4174 2 l0 -30 -99 0
c-91 0 -100 2 -106 20 -3 11 -4 23 -1 28 2 4 50 9 105 10 l101 3 0 -31z
m-4172 -254 c6 -31 -11 -37 -86 -30 -60 6 -72 10 -72 25 0 22 9 25 89 24 56 0
66 -3 69 -19z m4082 -1 c0 -27 0 -27 -70 -28 -42 0 -45 2 -48 26 -3 27 -3 27
57 27 58 0 61 -1 61 -25z m-4336 -40 c9 -25 -5 -45 -30 -45 -14 0 -27 7 -30
15 -10 25 4 45 30 45 13 0 26 -7 30 -15z m233 -81 c-9 -9 -28 6 -21 18 4 6 10
6 17 -1 6 -6 8 -13 4 -17z m3463 -684 c0 -5 -4 -10 -10 -10 -5 0 -10 5 -10 10
0 6 5 10 10 10 6 0 10 -4 10 -10z m-562 -256 c4 -27 -26 -40 -46 -20 -21 20
-8 48 20 44 14 -2 24 -11 26 -24z m-2245 -91 c4 -3 2 -12 -4 -20 -9 -10 -15
-10 -25 -2 -8 6 -11 15 -8 20 6 11 28 12 37 2z m817 -24 c0 -5 -4 -9 -10 -9
-5 0 -10 7 -10 16 0 8 5 12 10 9 6 -3 10 -10 10 -16z m1358 -54 c-3 -3 -9 2
-12 12 -6 14 -5 15 5 6 7 -7 10 -15 7 -18z m-1343 -30 c0 -23 -4 -30 -20 -30
-21 0 -31 25 -21 51 11 28 41 12 41 -21z m100 -5 c3 -5 1 -10 -4 -10 -6 0 -11
5 -11 10 0 6 2 10 4 10 3 0 8 -4 11 -10z m-7 -126 c2 -12 -4 -24 -12 -27 -19
-7 -40 18 -32 39 8 22 40 13 44 -12z m817 -5 c0 -17 -6 -24 -20 -24 -23 0 -33
34 -13 46 20 13 33 5 33 -22z m-195 -149 c0 -5 -2 -10 -4 -10 -3 0 -8 5 -11
10 -3 6 -1 10 4 10 6 0 11 -4 11 -10z m-175 -40 c0 -33 -40 -41 -50 -11 -9 28
2 43 28 39 16 -2 22 -10 22 -28z m-1225 -575 c0 -183 1 -196 20 -212 42 -37 9
-89 -39 -63 -37 19 -41 43 -41 259 l0 211 30 0 30 0 0 -195z m660 -5 l0 -200
25 -12 c27 -12 32 -37 13 -56 -19 -19 -47 -14 -73 13 -25 24 -25 24 -25 240
l0 215 30 0 30 0 0 -200z m482 115 c-2 -47 -1 -85 3 -85 4 0 13 7 21 15 25 25
87 19 115 -11 22 -24 24 -33 24 -136 l0 -110 -33 -29 c-38 -34 -94 -39 -124
-12 -18 16 -18 16 -12 0 5 -14 0 -17 -25 -17 l-31 0 0 235 0 235 33 0 32 0 -3
-85z m-1588 -12 c-2 -49 -3 -152 -4 -230 0 -136 -1 -143 -20 -143 -12 0 -20 7
-20 18 0 13 -2 14 -9 3 -14 -22 -106 -27 -137 -6 -69 45 -74 222 -8 289 32 31
93 36 115 10 12 -15 14 -14 20 7 4 13 7 50 8 82 1 56 2 57 30 57 l28 0 -3 -87z
m-654 56 c45 -25 60 -54 60 -113 0 -49 -31 -103 -70 -123 -14 -7 -51 -13 -82
-13 l-58 0 -1 -87 c-1 -49 -1 -91 0 -95 0 -5 -14 -8 -31 -8 l-33 0 2 213 c1
116 2 220 3 230 0 15 11 17 86 17 69 0 94 -4 124 -21z m1572 -5 c32 -17 43
-35 51 -86 5 -36 4 -38 -22 -38 -23 0 -31 7 -46 41 -21 46 -44 62 -79 53 -62
-15 -86 -91 -72 -227 6 -49 14 -72 31 -91 47 -51 125 -25 125 41 0 20 5 23 36
23 36 0 36 -1 30 -32 -14 -70 -68 -111 -144 -111 -51 0 -88 24 -120 79 -20 35
-22 50 -20 149 4 152 26 195 113 216 35 8 79 2 117 -17z m1172 -56 c13 -46 37
-124 52 -175 l27 -92 48 147 c26 81 50 159 53 175 6 24 11 27 46 27 l40 0 -2
-222 -3 -223 -32 -3 -33 -3 1 53 c1 29 4 99 8 156 3 56 4 102 1 102 -3 0 -28
-69 -56 -152 -42 -129 -54 -153 -72 -156 -19 -3 -25 11 -65 135 -25 76 -47
147 -50 158 -2 11 -5 -51 -6 -137 l-1 -158 -35 0 -35 0 0 148 c0 82 3 183 6
225 l7 77 38 0 38 0 25 -82z m-2429 -68 c18 -18 21 -37 25 -160 l5 -140 -32 0
c-18 0 -33 5 -33 10 0 6 5 10 12 10 6 0 9 3 6 6 -4 3 -20 -2 -37 -10 -31 -17
-77 -21 -106 -10 -19 8 -45 55 -45 83 0 59 63 111 135 111 36 0 44 15 29 54
-9 24 -76 21 -92 -4 -14 -24 -35 -26 -52 -5 -9 11 -8 20 9 44 12 16 31 32 44
34 42 10 111 -3 132 -23z m618 -10 c22 -25 27 -39 27 -85 l0 -55 -85 0 -85 0
0 -30 c0 -17 9 -39 21 -51 21 -21 27 -22 123 -7 32 5 29 -20 -6 -42 -20 -12
-50 -20 -77 -20 -37 0 -49 6 -81 38 -46 46 -58 94 -42 171 18 85 64 124 137
116 29 -3 48 -12 68 -35z m1161 22 c-1 -6 -2 -79 -2 -160 l-2 -148 -27 0 c-16
1 -31 5 -34 10 -4 4 -16 3 -27 -3 -35 -19 -81 -13 -107 14 -22 21 -27 39 -27
90 0 8 0 58 1 110 l1 95 30 0 30 0 0 -125 c0 -124 0 -126 25 -137 19 -9 29 -8
50 6 24 16 25 19 25 135 0 105 2 120 18 124 27 8 47 3 46 -11z m1185 -1 c29
-22 40 -77 40 -213 l1 -98 -25 0 c-14 0 -28 7 -31 15 -5 13 -8 13 -27 0 -52
-36 -128 -9 -143 50 -17 68 47 135 130 135 37 0 38 1 31 27 -13 55 -42 68 -72
33 -11 -12 -30 -20 -50 -20 -18 0 -33 2 -33 4 0 22 27 69 44 76 38 16 109 11
135 -9z m195 8 c-5 -8 -1 -8 14 0 34 18 83 13 109 -11 22 -21 23 -28 23 -165
l0 -143 -25 0 -25 0 0 122 c0 99 -3 125 -17 140 -21 24 -48 23 -73 -2 -18 -18
-20 -33 -20 -140 l0 -120 -30 0 -30 0 0 159 0 160 28 4 c49 7 53 7 46 -4z
m433 -23 c21 -25 23 -36 23 -152 0 -68 1 -127 3 -131 1 -5 -13 -9 -30 -11 -27
-3 -32 0 -26 14 6 15 4 15 -21 -1 -37 -25 -113 -16 -139 16 -21 27 -19 88 4
116 19 22 95 53 130 53 32 0 34 6 19 44 -8 21 -16 26 -44 26 -21 0 -36 -6 -40
-15 -3 -9 -19 -15 -41 -15 l-36 0 16 29 c24 48 53 63 109 58 38 -3 55 -11 73
-31z m248 24 c3 -5 13 -10 21 -10 8 0 12 5 9 10 -4 6 8 10 29 10 l36 0 0 -123
c0 -201 -9 -273 -37 -301 -30 -30 -81 -40 -133 -26 -30 8 -40 16 -40 31 0 19
4 20 39 14 27 -4 49 -2 69 9 32 16 42 34 42 72 l0 25 -29 -22 c-37 -27 -77
-19 -117 22 -25 26 -29 39 -32 105 -5 85 15 154 51 179 24 17 83 20 92 5z
m354 -6 c30 -21 51 -72 51 -124 l0 -40 -86 0 -85 0 3 -37 c2 -29 9 -41 30 -53
25 -13 32 -13 74 2 39 14 46 14 51 2 8 -21 -24 -52 -65 -63 -102 -29 -173 56
-158 188 7 56 35 114 64 131 27 15 95 12 121 -6z m271 -14 c0 -28 -3 -30 -35
-30 -48 0 -55 -19 -55 -154 l0 -116 -30 0 -30 0 0 161 0 162 35 -6 c19 -3 37
-1 40 4 4 5 22 9 41 9 31 0 34 -2 34 -30z"/>
<path d="M5155 7701 c-40 -10 -56 -19 -230 -129 -184 -117 -410 -258 -615
-384 -491 -303 -585 -361 -687 -422 -127 -75 -162 -106 -192 -169 -21 -43 -21
-50 -21 -926 0 -621 3 -896 11 -927 20 -79 69 -118 413 -330 392 -241 394
-242 646 -399 334 -208 361 -225 455 -283 50 -30 109 -68 132 -83 54 -38 128
-52 193 -38 49 10 179 88 670 399 305 193 421 265 785 488 214 131 242 153
269 212 19 42 20 62 19 325 -4 513 -3 568 2 913 5 276 3 342 -7 342 -10 0 -10
2 1 9 10 7 12 36 9 132 -6 183 -21 206 -223 331 -71 44 -182 113 -245 153
-155 98 -316 197 -366 226 -23 13 -79 49 -125 80 -46 30 -104 68 -129 83 -25
15 -137 85 -250 156 -381 239 -431 262 -515 241z m124 -53 c28 -6 51 -16 51
-21 0 -5 -12 -6 -27 -3 -16 4 -56 10 -90 13 -35 3 -63 9 -63 14 0 13 69 11
129 -3z m-145 -7 c3 -5 -10 -18 -29 -30 -28 -16 -35 -17 -35 -6 0 8 5 15 11
15 6 0 17 7 25 15 18 17 21 18 28 6z m270 -66 c32 -19 62 -35 67 -35 5 0 9 -4
9 -8 0 -5 17 -17 38 -28 79 -40 124 -84 87 -84 -8 0 -15 7 -15 15 0 8 -4 15
-9 15 -5 0 -16 6 -23 13 -7 6 -38 25 -68 41 -64 35 -168 106 -154 106 6 0 36
-16 68 -35z m-344 14 c0 -5 -4 -7 -10 -4 -5 3 -10 1 -10 -6 0 -7 -3 -10 -6 -6
-8 7 4 27 17 27 5 0 9 -5 9 -11z m-61 -38 c-27 -23 -39 -26 -39 -11 0 6 4 9 9
8 5 -2 9 1 9 7 1 9 34 25 41 19 2 -2 -7 -12 -20 -23z m-79 -51 c0 -5 -13 -16
-30 -25 -27 -14 -30 -14 -30 0 0 8 5 16 10 16 6 1 14 2 19 3 5 0 13 4 17 9 10
10 14 9 14 -3z m-70 -38 c0 -11 -34 -38 -71 -57 -22 -12 -34 -14 -42 -6 -7 7
-8 11 -1 11 6 0 31 13 55 30 45 31 59 36 59 22z m820 -41 c0 -6 -5 -13 -12
-17 -7 -5 -8 -3 -3 6 6 10 4 12 -9 7 -10 -4 -15 -3 -11 3 8 13 35 13 35 1z
m20 -21 c0 -5 -5 -10 -11 -10 -5 0 -7 5 -4 10 3 6 8 10 11 10 2 0 4 -4 4 -10z
m25 -10 c3 -5 1 -10 -4 -10 -6 0 -11 5 -11 10 0 6 2 10 4 10 3 0 8 -4 11 -10z
m-1005 -24 c-7 -7 -13 -7 -20 0 -6 6 -3 10 10 10 13 0 16 -4 10 -10z m1054
-12 c9 -24 8 -25 -13 -12 -11 7 -17 16 -15 20 8 13 21 9 28 -8z m-1108 -16 c4
-7 3 -8 -4 -4 -7 4 -12 3 -12 -2 0 -5 -11 -17 -25 -26 -23 -15 -25 -15 -25 0
0 10 3 15 6 12 3 -4 14 2 25 13 22 22 25 23 35 7z m1259 -82 c6 -7 26 -20 45
-29 19 -10 75 -42 124 -72 49 -30 91 -55 93 -55 14 0 63 -44 63 -56 0 -8 -5
-12 -10 -9 -6 4 -7 11 -4 17 4 6 2 8 -3 5 -13 -8 -100 39 -113 61 -5 10 -10
13 -10 9 0 -4 -9 -3 -20 3 -11 6 -17 16 -14 22 5 7 2 8 -5 3 -12 -7 -96 45
-113 69 -4 6 -8 7 -8 3 0 -4 -9 -3 -20 3 -11 6 -17 16 -14 22 4 6 3 8 -4 4
-14 -8 -105 49 -108 68 -2 14 100 -43 121 -68z m-1335 34 c0 -14 -39 -32 -52
-24 -7 4 -8 3 -4 -4 3 -6 -3 -16 -14 -22 -20 -11 -26 -4 -12 16 7 11 61 43 75
44 4 0 7 -4 7 -10z m-123 -81 c-14 -10 -32 -19 -41 -19 -9 0 -16 -6 -16 -13 0
-11 -30 -31 -84 -55 -5 -3 -7 1 -5 7 6 16 130 96 152 98 15 2 14 -2 -6 -18z
m58 1 c3 -5 1 -10 -4 -10 -6 0 -11 5 -11 10 0 6 2 10 4 10 3 0 8 -4 11 -10z
m-238 -104 c-20 -23 -54 -25 -40 -3 5 8 8 7 11 -2 3 -8 9 -6 19 8 8 12 18 21
23 21 5 0 -1 -11 -13 -24z m1062 -32 c2 -2 -25 -4 -61 -4 -194 0 -361 -72
-466 -202 -142 -175 -213 -363 -213 -562 1 -133 15 -199 98 -459 13 -42 23
-82 21 -88 -5 -16 -108 324 -124 409 -32 180 -6 360 76 531 130 272 330 400
595 383 39 -3 72 -6 74 -8z m-1162 -38 c-7 -17 -135 -91 -144 -83 -9 10 9 28
23 23 8 -3 14 1 14 8 0 7 18 21 40 31 22 10 45 24 51 32 14 16 24 10 16 -11z
m1033 4 c0 -5 -4 -10 -10 -10 -5 0 -10 5 -10 10 0 6 5 10 10 10 6 0 10 -4 10
-10z m273 -16 c-8 -20 -29 -17 -29 5 0 12 6 17 17 14 10 -3 15 -11 12 -19z
m-269 -13 c3 -5 -8 -11 -24 -13 -35 -5 -41 8 -7 15 12 2 23 5 24 6 1 0 4 -3 7
-8z m1121 -15 c-10 -7 -25 -12 -32 -9 -23 9 -14 19 19 21 31 3 31 2 13 -12z
m-1225 -4 c0 -4 -14 -13 -31 -19 -23 -9 -29 -9 -26 0 2 6 14 14 28 18 13 4 25
7 27 8 1 1 2 -3 2 -7z m270 -32 c0 -5 -4 -10 -10 -10 -5 0 -10 5 -10 10 0 6 5
10 10 10 6 0 10 -4 10 -10z m1012 2 c2 -4 25 -21 52 -37 28 -17 66 -40 85 -53
20 -12 44 -25 54 -28 9 -4 17 -13 17 -21 0 -8 5 -11 10 -8 6 3 10 1 10 -4 0
-15 -16 -14 -32 2 -7 7 -21 16 -31 20 -11 4 -15 12 -11 18 4 8 3 9 -4 5 -6 -4
-24 1 -39 10 -91 56 -133 86 -133 95 0 11 17 12 22 1z m-2374 -33 c-1 -17 -4
-25 -8 -18 -6 8 -19 5 -49 -12 -22 -12 -41 -26 -41 -31 0 -4 -6 -8 -13 -8 -7
0 -35 -14 -61 -30 -26 -17 -52 -27 -58 -24 -7 4 -8 2 -4 -4 3 -6 -3 -16 -14
-22 -12 -6 -20 -7 -20 -1 0 17 31 41 51 41 11 0 17 4 14 10 -6 10 62 44 84 41
7 -1 10 2 7 8 -4 6 5 13 19 17 13 3 22 11 19 16 -4 6 -1 9 7 6 13 -4 26 3 52
29 7 7 13 12 14 13 1 0 1 -14 1 -31z m1292 17 c0 -3 -4 -8 -10 -11 -5 -3 -10
-1 -10 4 0 6 5 11 10 11 6 0 10 -2 10 -4z m-103 -21 c0 -18 -19 -15 -25 3 -2
7 3 12 11 12 7 0 14 -7 14 -15z m-107 -25 c-8 -5 -17 -7 -19 -4 -3 3 1 9 9 14
8 5 17 7 19 4 3 -3 -1 -9 -9 -14z m-65 0 c-3 -5 -10 -10 -16 -10 -5 0 -9 5 -9
10 0 6 7 10 16 10 8 0 12 -4 9 -10z m785 -37 c0 -7 -39 17 -46 28 -3 6 5 3 20
-6 14 -10 26 -19 26 -22z m-270 18 c0 -14 -18 -23 -30 -16 -6 4 -8 11 -5 16 8
12 35 12 35 0z m-90 -37 c0 -17 -22 -14 -28 4 -2 7 3 12 12 12 9 0 16 -7 16
-16z m460 -81 c0 -8 -9 0 -50 45 l-45 47 48 -45 c26 -24 47 -45 47 -47z m-647
58 c20 11 21 11 8 -4 -17 -21 -32 -21 -57 -1 -18 14 -18 15 4 4 16 -8 28 -8
45 1z m-353 -26 c0 -8 -7 -15 -15 -15 -16 0 -20 12 -8 23 11 12 23 8 23 -8z
m625 5 c3 -5 1 -10 -4 -10 -6 0 -11 5 -11 10 0 6 2 10 4 10 3 0 8 -4 11 -10z
m1105 -15 c14 -19 14 -19 -2 -6 -10 7 -18 18 -18 24 0 6 1 8 3 6 1 -2 9 -13
17 -24z m-2910 -13 c0 -10 -22 -32 -32 -32 -13 0 -9 28 5 33 19 8 27 8 27 -1z
m1110 -6 c0 -8 -4 -18 -10 -21 -5 -3 -10 3 -10 14 0 12 5 21 10 21 6 0 10 -6
10 -14z m1835 4 c-3 -5 3 -10 14 -10 13 0 21 -7 21 -16 0 -15 -2 -15 -22 -2
-25 17 -35 38 -18 38 6 0 8 -4 5 -10z m-1765 -45 c0 -8 -7 -15 -15 -15 -16 0
-20 12 -8 23 11 12 23 8 23 -8z m1031 -2 c13 -16 12 -17 -3 -4 -10 7 -18 15
-18 17 0 8 8 3 21 -13z m-41 -13 c0 -5 -4 -10 -10 -10 -5 0 -10 5 -10 10 0 6
5 10 10 10 6 0 10 -4 10 -10z m953 -46 c43 -28 90 -78 93 -99 4 -30 -14 -23
-39 14 -15 23 -57 59 -97 85 -38 25 -70 48 -70 51 0 9 72 -24 113 -51z m-2009
25 c-7 -11 -34 -12 -34 -1 0 14 11 21 26 15 8 -3 11 -9 8 -14z m-74 -19 c0 -5
-4 -10 -10 -10 -5 0 -10 5 -10 10 0 6 5 10 10 10 6 0 10 -4 10 -10z m270 -10
c0 -5 -2 -10 -4 -10 -3 0 -8 5 -11 10 -3 6 -1 10 4 10 6 0 11 -4 11 -10z
m-1539 -58 c-24 -38 -33 -67 -41 -130 -7 -52 -9 -380 -7 -892 2 -445 0 -810
-4 -810 -9 0 -14 580 -10 1270 2 456 3 488 22 528 10 23 24 42 29 42 6 0 10 5
10 10 0 12 23 40 29 34 2 -2 -11 -25 -28 -52z m1464 38 c3 -5 1 -10 -4 -10 -6
0 -11 5 -11 10 0 6 2 10 4 10 3 0 8 -4 11 -10z m1045 -34 c0 -12 -5 -7 -19 24
-11 24 -11 24 3 6 9 -11 16 -24 16 -30z m-940 24 c0 -5 -2 -10 -4 -10 -3 0 -8
5 -11 10 -3 6 -1 10 4 10 6 0 11 -4 11 -10z m-272 -47 c-2 -10 -10 -18 -18
-18 -8 0 -16 8 -18 18 -2 12 3 17 18 17 15 0 20 -5 18 -17z m85 -67 c4 -10 0
-12 -14 -9 -10 3 -16 9 -13 14 8 13 21 11 27 -5z m1154 -8 c-3 -8 -6 -5 -6 6
-1 11 2 17 5 13 3 -3 4 -12 1 -19z m918 12 c3 -5 1 -10 -4 -10 -6 0 -11 5 -11
10 0 6 2 10 4 10 3 0 8 -4 11 -10z m-1815 -20 c0 -5 -4 -10 -10 -10 -5 0 -10
5 -10 10 0 6 5 10 10 10 6 0 10 -4 10 -10z m-207 -7 c-7 -2 -19 -2 -25 0 -7 3
-2 5 12 5 14 0 19 -2 13 -5z m2024 -25 c-3 -7 -5 -2 -5 12 0 14 2 19 5 13 2
-7 2 -19 0 -25z m-910 -130 c-2 -24 -4 -5 -4 42 0 47 2 66 4 43 2 -24 2 -62 0
-85z m913 -269 c1 -405 2 -369 -9 -369 -5 0 -7 123 -5 298 2 163 4 324 4 356
0 33 2 57 5 55 2 -3 5 -156 5 -340z m-1633 305 c-3 -3 -12 -4 -19 -1 -8 3 -5
6 6 6 11 1 17 -2 13 -5z m-349 -75 c-20 -13 -31 -11 -25 5 3 7 0 19 -6 26 -7
7 1 5 16 -5 21 -14 25 -20 15 -26z m-1408 27 c0 -3 -4 -8 -10 -11 -5 -3 -10
-1 -10 4 0 6 5 11 10 11 6 0 10 -2 10 -4z m70 -16 c0 -5 -2 -10 -4 -10 -3 0
-8 5 -11 10 -3 6 -1 10 4 10 6 0 11 -4 11 -10z m1220 -12 c0 -16 -3 -19 -11
-11 -6 6 -8 16 -5 22 11 17 16 13 16 -11z m1160 -101 c-27 -88 -49 -132 -112
-223 -85 -124 -247 -264 -360 -313 -24 -10 -99 -37 -168 -61 -69 -23 -185 -71
-258 -107 -106 -50 -145 -75 -193 -121 -32 -32 -59 -55 -59 -51 0 4 27 32 60
62 75 69 254 162 433 223 211 73 314 133 429 250 125 128 191 235 224 363 10
39 20 67 22 61 2 -6 -6 -43 -18 -83z m-741 59 c9 -11 8 -18 -4 -30 -20 -20
-34 -20 -41 -1 -14 36 21 60 45 31z m-1039 -6 c127 -20 229 -92 296 -207 18
-32 19 -33 30 -12 10 19 17 5 57 -116 34 -101 43 -143 36 -156 -12 -23 -12
-59 1 -59 6 0 10 -5 10 -11 0 -5 -4 -7 -10 -4 -18 11 -11 -81 10 -128 l20 -45
-27 -64 c-45 -104 -62 -129 -82 -119 -26 14 -107 104 -125 139 -9 18 -19 32
-22 32 -3 0 -20 -10 -37 -22 -35 -25 -38 -26 -87 -33 l-35 -5 30 10 c58 19
130 65 133 85 4 20 4 20 -19 -1 -69 -60 -127 -74 -303 -74 -102 0 -136 -3
-137 -12 0 -10 -2 -10 -6 0 -3 8 -26 12 -64 12 -32 0 -59 3 -59 8 0 4 31 52
68 107 l67 100 85 2 c47 1 90 2 95 3 6 1 24 1 40 1 35 -2 116 46 139 82 25 38
24 136 -3 185 -7 13 -33 37 -59 53 l-46 29 -208 0 -208 0 -82 71 c-141 121
-168 146 -168 153 0 10 601 7 670 -4z m2518 1 c10 -6 13 -46 13 -170 -1 -121
2 -161 12 -161 9 0 9 -2 -1 -8 -9 -6 -12 -59 -10 -220 1 -117 5 -212 10 -212
5 0 6 -5 2 -12 -4 -6 -9 -104 -12 -217 -2 -113 -8 -214 -13 -223 -8 -16 -25
-18 -124 -18 -63 0 -115 3 -115 8 -3 174 1 656 5 660 5 5 7 -97 5 -360 -1 -97
3 -148 10 -148 6 0 10 69 11 203 1 111 2 248 3 304 1 55 -2 99 -6 97 -3 -2
-21 -30 -38 -62 -54 -95 -192 -315 -223 -354 -16 -20 -37 -38 -48 -41 -26 -7
-24 8 4 21 19 9 13 11 -35 11 -69 1 -62 -7 -209 240 l-104 175 -5 -350 c-4
-283 -8 -354 -20 -376 -15 -28 -16 -28 -122 -28 l-108 0 -1 58 c0 31 -2 64 -3
72 -2 8 0 24 5 35 5 12 8 -14 8 -67 l1 -88 102 0 c75 0 99 3 91 11 -7 7 -43
10 -97 8 l-86 -4 2 309 3 309 95 66 c70 49 116 92 174 161 43 52 82 96 87 98
4 2 47 -63 95 -144 81 -137 88 -146 101 -128 8 10 52 82 98 159 46 77 91 149
100 160 16 19 17 19 3 -5 -27 -47 -181 -305 -196 -327 -8 -13 -10 -23 -5 -23
5 0 20 19 33 43 13 23 78 130 145 237 67 107 136 221 154 253 l32 57 82 0 c45
0 88 -4 95 -9z m-254 -97 c-61 -96 -92 -134 -54 -69 45 78 103 166 107 161 2
-2 -22 -44 -53 -92z m-1684 62 c0 -2 -9 -2 -20 1 -11 3 -20 9 -20 15 0 5 9 4
20 -2 11 -6 20 -12 20 -14z m-1098 -131 c4 -5 5 -11 3 -13 -2 -2 -37 29 -77
68 l-73 73 70 -59 c39 -33 73 -63 77 -69z m2192 94 c-3 -5 -10 -7 -15 -3 -5 3
-7 10 -3 15 3 5 10 7 15 3 5 -3 7 -10 3 -15z m-993 -22 c-1 -12 -15 -9 -19 4
-3 6 1 10 8 8 6 -3 11 -8 11 -12z m-87 -5 c3 -5 -1 -9 -9 -9 -8 0 -15 4 -15 9
0 4 4 8 9 8 6 0 12 -4 15 -8z m-99 -12 c-4 -6 -1 -17 5 -25 7 -9 8 -15 2 -15
-12 0 -24 29 -16 41 3 5 7 9 10 9 3 0 2 -5 -1 -10z m-1116 -27 c19 -15 68 -56
108 -91 l73 -63 0 -460 c0 -252 -3 -460 -7 -460 -5 -1 -48 -3 -98 -4 -116 -4
-125 -7 -45 -15 l65 -7 -65 1 c-64 1 -65 2 -71 31 -4 17 -7 105 -8 198 -1 116
-4 167 -12 167 -8 0 -8 4 0 14 8 10 12 64 11 168 -2 345 0 548 7 548 3 0 22
-12 42 -27z m1315 -34 c-6 -11 -24 -2 -24 11 0 5 7 7 15 4 8 -4 12 -10 9 -15z
m-909 -79 l200 -6 -201 -2 -201 -2 -44 41 -44 41 45 -34 44 -33 201 -5z m735
49 c0 -5 -4 -8 -9 -5 -5 4 -12 0 -14 -6 -3 -8 -6 -6 -6 5 -1 9 6 17 14 17 8 0
15 -5 15 -11z m658 -51 c-6 -18 -28 -21 -28 -4 0 9 7 16 16 16 9 0 14 -5 12
-12z m-551 -4 c-3 -3 -12 -4 -19 -1 -8 3 -5 6 6 6 11 1 17 -2 13 -5z m-581
-20 c14 -9 30 -26 36 -38 9 -17 6 -16 -18 6 -16 15 -40 31 -54 37 -18 7 -20
10 -7 10 10 1 29 -6 43 -15z m494 1 c10 -12 10 -15 -4 -15 -9 0 -16 7 -16 15
0 8 2 15 4 15 2 0 9 -7 16 -15z m301 -38 c-13 -13 -26 -3 -16 12 3 6 11 8 17
5 6 -4 6 -10 -1 -17z m-1250 -241 c0 -174 3 -246 10 -246 8 0 8 -4 1 -13 -7
-8 -13 -74 -15 -163 -1 -82 -4 37 -5 265 -1 228 1 412 4 408 3 -3 6 -116 5
-251z m1264 174 c3 -5 1 -10 -4 -10 -6 0 -11 5 -11 10 0 6 2 10 4 10 3 0 8 -4
11 -10z m-81 -91 c-3 -5 -10 -7 -15 -3 -5 3 -7 10 -3 15 3 5 10 7 15 3 5 -3 7
-10 3 -15z m-136 -78 c44 -26 119 -61 166 -76 70 -23 84 -31 75 -41 -15 -18
-30 -18 -23 -1 3 9 -14 19 -53 31 -68 22 -174 74 -222 110 -52 39 -33 31 57
-23z m-161 7 c-3 -7 -5 -2 -5 12 0 14 2 19 5 13 2 -7 2 -19 0 -25z m106 -148
c1 -47 -2 -98 -6 -114 -12 -43 -17 -26 -6 22 6 29 5 73 -6 149 -18 127 -18
131 1 73 8 -25 15 -83 17 -130z m1704 138 c-3 -8 -6 -5 -6 6 -1 11 2 17 5 13
3 -3 4 -12 1 -19z m-1785 -158 c1 -47 -3 -95 -8 -107 -6 -14 -9 24 -9 118 0
150 14 141 17 -11z m1218 79 c0 -4 38 -69 83 -145 81 -135 85 -139 120 -142
21 -2 37 -8 37 -14 0 -5 -7 -7 -16 -4 -9 3 -26 6 -39 6 -31 0 -30 0 -126 160
-44 74 -89 147 -100 162 -30 43 -22 57 11 18 16 -19 30 -38 30 -41z m1000 -84
c0 -85 -4 -155 -9 -155 -4 0 -7 69 -6 153 4 167 3 157 10 157 3 0 5 -70 5
-155z m-1310 -127 c0 -116 -3 -208 -7 -204 -8 8 -14 396 -6 409 2 4 6 7 9 7 2
0 4 -95 4 -212z m850 208 c0 -3 -4 -8 -10 -11 -5 -3 -10 -1 -10 4 0 6 5 11 10
11 6 0 10 -2 10 -4z m-910 -61 c0 -13 -97 -155 -128 -187 l-36 -38 -216 0
-215 1 43 39 c41 37 239 145 320 175 34 13 232 21 232 10z m-590 -39 c0 -2
-18 -15 -40 -30 -22 -14 -40 -24 -40 -22 0 5 71 56 77 56 2 0 3 -2 3 -4z
m-837 -83 c-23 -2 -64 -2 -90 0 -26 2 -7 3 42 3 50 0 71 -1 48 -3z m687 -28
c-7 -9 -15 -13 -19 -10 -3 3 1 10 9 15 21 14 24 12 10 -5z m-12 -78 c8 -7 9
-14 3 -20 -7 -7 -27 -3 -60 12 -27 11 -54 21 -59 21 -9 0 -93 -155 -97 -180
-6 -36 -18 -60 -31 -60 -18 0 -18 2 9 63 13 29 30 67 38 85 8 17 17 32 21 32
5 0 8 6 8 14 0 8 7 27 14 43 8 15 17 36 20 46 5 17 11 16 63 -14 32 -18 64
-37 71 -42z m2121 -271 l-1 -315 -34 -37 c-19 -20 -34 -40 -34 -43 0 -4 -16
-16 -35 -27 -19 -10 -86 -52 -149 -91 -63 -40 -117 -73 -120 -73 -20 0 2 21
57 53 34 21 95 58 135 82 39 24 72 41 72 38 0 -3 13 10 29 30 15 20 31 34 35
30 3 -3 6 3 6 15 0 12 4 22 8 22 11 0 11 4 16 325 4 317 4 305 11 305 4 0 5
-141 4 -314z m-2251 182 c-6 -18 -28 -21 -28 -4 0 9 7 16 16 16 9 0 14 -5 12
-12z m2192 -28 c0 -5 -2 -10 -4 -10 -3 0 -8 5 -11 10 -3 6 -1 10 4 10 6 0 11
-4 11 -10z m-2310 -136 c0 -8 -4 -14 -9 -14 -5 0 -12 -12 -16 -27 -3 -15 -27
-57 -52 -94 -45 -67 -73 -92 -73 -64 0 8 6 15 14 15 8 0 17 9 21 20 3 10 23
50 43 87 39 71 42 77 42 93 0 5 7 7 15 4 8 -4 15 -12 15 -20z m610 7 c0 -5 -7
-12 -16 -15 -14 -5 -15 -4 -4 9 14 17 20 19 20 6z m107 -47 c72 -23 139 -69
190 -131 50 -63 66 -112 66 -214 0 -65 -4 -86 -28 -135 -26 -53 -30 -57 -35
-34 -4 18 -12 24 -30 24 -14 0 -35 10 -47 23 -12 12 -25 19 -28 13 -3 -5 3
-18 13 -28 32 -32 52 -66 52 -87 -1 -40 -56 -86 -132 -109 -40 -12 -46 -12
-41 0 3 8 10 13 17 12 30 -7 126 56 126 82 0 13 -42 30 -58 22 -9 -4 -30 -7
-47 -6 -16 0 -47 -8 -67 -18 -20 -11 -52 -20 -70 -20 -18 0 -41 -5 -50 -9 -19
-10 -14 -39 7 -39 7 0 18 -6 24 -14 9 -11 6 -16 -19 -25 -17 -6 -39 -7 -48 -2
-108 51 -130 66 -165 112 -86 113 -109 206 -81 326 9 40 20 73 23 73 4 0 15
15 25 34 9 18 37 50 62 70 24 20 44 44 44 52 0 8 4 13 9 10 5 -3 37 5 70 17
71 27 135 27 218 1z m-877 -209 c-7 -8 -16 -12 -21 -9 -13 8 -1 24 18 24 13 0
13 -3 3 -15z m-930 -45 c0 -5 -5 -10 -11 -10 -5 0 -7 5 -4 10 3 6 8 10 11 10
2 0 4 -4 4 -10z m-23 -56 c-7 -7 82 -94 96 -94 4 0 7 -7 7 -16 0 -24 -56 13
-91 60 -31 43 -35 56 -17 56 6 0 8 -3 5 -6z m143 -132 c0 11 63 -26 68 -40 2
-7 -19 0 -47 14 -28 15 -48 31 -45 36 4 6 10 5 15 -3 5 -8 9 -11 9 -7z m1220
-2 c0 -5 -4 -10 -10 -10 -5 0 -10 5 -10 10 0 6 5 10 10 10 6 0 10 -4 10 -10z
m-1120 -56 c0 -10 6 -14 15 -10 8 3 15 0 15 -6 0 -6 3 -9 6 -5 9 9 94 -51 93
-66 0 -9 -2 -9 -6 1 -2 6 -13 12 -23 12 -10 0 -25 8 -32 19 -7 10 -24 22 -38
26 -40 12 -69 45 -40 45 6 0 10 -7 10 -16z m1680 -68 c0 -3 -4 -8 -10 -11 -5
-3 -10 -1 -10 4 0 6 5 11 10 11 6 0 10 -2 10 -4z m1137 -33 c-13 -13 -19 -14
-29 -5 -9 9 -9 12 3 13 7 1 17 1 22 0 4 0 7 4 7 11 0 6 3 8 7 4 4 -3 -1 -14
-10 -23z m-2607 -30 c0 -8 -44 9 -57 23 -23 23 -14 24 22 3 19 -12 35 -23 35
-26z m2526 -19 c-22 -16 -36 -18 -36 -6 0 11 43 32 50 25 3 -3 -4 -11 -14 -19z
m-2456 -16 c47 -31 61 -48 41 -48 -5 0 -16 7 -25 15 -8 8 -19 15 -25 15 -6 0
-11 4 -11 9 0 5 -9 11 -20 14 -11 3 -20 10 -20 16 0 16 5 14 60 -21z m2400 -7
c0 -6 -4 -13 -10 -16 -5 -3 -10 1 -10 9 0 9 5 16 10 16 6 0 10 -4 10 -9z m-30
-15 c0 -13 -181 -138 -189 -131 -8 9 15 28 82 67 40 23 78 50 85 60 16 22 22
23 22 4z m-2295 -26 c3 -5 1 -10 -4 -10 -6 0 -11 5 -11 10 0 6 2 10 4 10 3 0
8 -4 11 -10z m65 -45 c5 3 11 1 15 -5 7 -11 -5 -13 -29 -4 -9 3 -13 11 -9 17
5 8 8 7 11 -1 2 -7 8 -10 12 -7z m90 -60 c0 -8 -2 -15 -4 -15 -2 0 -6 7 -10
15 -3 8 -1 15 4 15 6 0 10 -7 10 -15z m46 -20 c17 -13 17 -14 2 -15 -10 0 -18
5 -18 11 0 5 -4 7 -10 4 -5 -3 -10 -1 -10 4 0 15 13 14 36 -4z m1848 -23 c-22
-5 -31 7 -14 18 9 6 17 5 22 -3 4 -7 1 -13 -8 -15z m-1722 -55 c37 -25 64 -47
62 -50 -7 -7 -104 54 -104 65 0 5 -4 7 -9 4 -9 -6 -51 26 -51 38 0 9 22 -3
102 -57z m1678 39 c-34 -33 -140 -95 -140 -82 0 8 30 32 68 54 70 42 96 52 72
28z m-1557 -124 c-2 -6 3 -9 10 -6 8 3 25 -4 38 -15 32 -27 5 -28 -38 -1 -32
19 -47 47 -20 37 6 -2 11 -9 10 -15z m1367 8 c0 -11 -101 -76 -112 -72 -5 1
-8 -2 -8 -7 0 -10 -158 -108 -181 -113 -8 -2 -16 -5 -19 -8 -16 -18 -70 -50
-70 -42 0 10 80 63 305 202 91 56 85 53 85 40z m-1270 -58 c0 -13 -12 -22 -22
-16 -10 6 -1 24 13 24 5 0 9 -4 9 -8z m40 -27 c26 -14 41 -35 24 -35 -12 0
-64 34 -64 42 0 11 7 10 40 -7z m76 -49 c10 -8 17 -16 14 -19 -8 -8 -50 11
-50 23 0 14 13 13 36 -4z m112 -76 c6 -17 -16 -11 -27 8 -6 9 -11 13 -11 9 0
-5 -6 -5 -12 0 -7 4 -17 8 -23 8 -5 0 -11 8 -13 19 -4 16 1 16 39 -8 24 -14
45 -30 47 -36z m58 -35 c12 -8 24 -12 27 -9 3 3 8 1 12 -5 3 -7 -2 -11 -14
-11 -12 0 -21 4 -21 8 0 5 -12 13 -27 19 -16 6 -21 11 -13 12 9 1 25 -6 36
-14z m584 -4 c0 -12 -177 -125 -219 -139 -44 -15 -97 -14 -141 3 -42 16 -31
18 28 5 52 -12 112 1 157 34 17 12 48 30 70 41 22 10 53 29 68 41 31 26 37 29
37 15z m-410 -73 c0 -6 -7 -5 -15 2 -8 7 -15 17 -15 22 0 6 7 5 15 -2 8 -7 15
-17 15 -22z m-70 2 c0 -5 -2 -10 -4 -10 -3 0 -8 5 -11 10 -3 6 -1 10 4 10 6 0
11 -4 11 -10z m38 -18 c2 -7 -2 -10 -12 -6 -9 3 -16 11 -16 16 0 13 23 5 28
-10z m32 -17 c11 -13 10 -14 -4 -9 -9 3 -16 10 -16 15 0 13 6 11 20 -6z"/>
<path d="M5250 6240 c0 -5 5 -10 10 -10 6 0 10 5 10 10 0 6 -4 10 -10 10 -5 0
-10 -4 -10 -10z"/>
<path d="M6542 5093 l3 -68 108 -3 c59 -1 107 1 107 6 0 4 -44 8 -97 7 l-98 0
-3 63 c-2 34 -7 62 -13 62 -6 0 -9 -27 -7 -67z"/>
<path d="M4978 4543 c-25 -30 -30 -43 -15 -37 8 3 19 16 25 30 14 28 11 30
-10 7z"/>
<path d="M5160 2610 c-12 -7 -15 -30 -15 -102 l0 -92 33 -10 c51 -14 70 11 78
105 6 63 4 78 -10 92 -19 19 -62 22 -86 7z"/>
<path d="M3410 2610 c-28 -28 -29 -168 -2 -193 21 -19 45 -21 73 -7 17 9 19
22 19 105 0 83 -2 96 -19 105 -29 15 -49 12 -71 -10z"/>
<path d="M2760 2665 l0 -85 43 0 c55 0 88 18 100 53 20 60 -32 117 -108 117
l-35 0 0 -85z"/>
<path d="M3144 2499 c-40 -11 -66 -41 -62 -71 3 -20 8 -23 40 -22 21 1 44 7
53 14 15 13 22 91 8 89 -5 0 -22 -5 -39 -10z"/>
<path d="M3722 2607 c-6 -6 -14 -25 -18 -41 -6 -25 -5 -28 10 -23 10 4 35 7
57 7 34 0 39 3 39 23 0 13 -5 28 -12 35 -16 16 -63 15 -76 -1z"/>
<path d="M6082 2484 c-29 -20 -30 -70 -1 -79 11 -4 34 -1 50 5 25 11 29 18 29
51 0 36 -2 39 -28 39 -15 0 -38 -7 -50 -16z"/>
<path d="M6696 2475 c-46 -42 -24 -83 39 -71 40 8 41 9 49 59 6 37 5 37 -28
37 -21 0 -42 -9 -60 -25z"/>
<path d="M7001 2604 c-30 -38 -30 -155 -1 -184 24 -24 48 -25 78 -4 20 14 22
24 22 99 0 75 -2 85 -22 99 -32 23 -54 20 -77 -10z"/>
<path d="M7310 2594 c-19 -48 -14 -54 45 -54 49 0 55 2 55 21 0 39 -19 59 -56
59 -28 0 -36 -5 -44 -26z"/>
</g>
</svg>
